<svg width="1000" height="1000" viewBox="0 0 1000 1000" fill="none" xmlns="http://www.w3.org/2000/svg">
<circle cx="500" cy="500" r="400" fill="white"/>
<circle cx="500" cy="500" r="322" stroke="#101820" stroke-width="6"/>
<rect x="265" y="697" width="469" height="107" fill="white"/>
<rect x="346" y="773" width="307" height="83" fill="white"/>
<circle cx="500" cy="500" r="392" stroke="#101820" stroke-width="16"/>
<path d="M324.372 322.139V306.545H397.84V322.139H370.454V396H351.759V322.139H324.372ZM488.059 351.273C488.059 361.028 486.21 369.327 482.512 376.17C478.843 383.013 473.834 388.24 467.486 391.85C461.168 395.432 454.062 397.223 446.171 397.223C438.222 397.223 431.087 395.418 424.768 391.807C418.45 388.196 413.456 382.969 409.787 376.126C406.117 369.283 404.283 360.999 404.283 351.273C404.283 341.518 406.117 333.219 409.787 326.376C413.456 319.533 418.45 314.32 424.768 310.739C431.087 307.128 438.222 305.322 446.171 305.322C454.062 305.322 461.168 307.128 467.486 310.739C473.834 314.32 478.843 319.533 482.512 326.376C486.21 333.219 488.059 341.518 488.059 351.273ZM468.884 351.273C468.884 344.954 467.938 339.625 466.045 335.286C464.181 330.947 461.546 327.657 458.139 325.415C454.732 323.173 450.743 322.051 446.171 322.051C441.599 322.051 437.61 323.173 434.203 325.415C430.796 327.657 428.146 330.947 426.254 335.286C424.39 339.625 423.458 344.954 423.458 351.273C423.458 357.592 424.39 362.92 426.254 367.259C428.146 371.598 430.796 374.888 434.203 377.131C437.61 379.373 441.599 380.494 446.171 380.494C450.743 380.494 454.732 379.373 458.139 377.131C461.546 374.888 464.181 371.598 466.045 367.259C467.938 362.92 468.884 357.592 468.884 351.273ZM533.78 396H502.069V306.545H534.042C543.04 306.545 550.786 308.336 557.28 311.918C563.773 315.471 568.767 320.581 572.261 327.249C575.785 333.918 577.547 341.896 577.547 351.185C577.547 360.504 575.785 368.511 572.261 375.209C568.767 381.906 563.744 387.046 557.192 390.627C550.669 394.209 542.865 396 533.78 396ZM520.982 379.795H532.994C538.585 379.795 543.288 378.805 547.102 376.825C550.946 374.816 553.829 371.714 555.751 367.521C557.702 363.299 558.677 357.854 558.677 351.185C558.677 344.575 557.702 339.174 555.751 334.98C553.829 330.787 550.961 327.701 547.146 325.721C543.331 323.74 538.629 322.75 533.038 322.75H520.982V379.795ZM673.76 351.273C673.76 361.028 671.911 369.327 668.213 376.17C664.544 383.013 659.536 388.24 653.188 391.85C646.869 395.432 639.764 397.223 631.872 397.223C623.923 397.223 616.788 395.418 610.47 391.807C604.151 388.196 599.157 382.969 595.488 376.126C591.819 369.283 589.984 360.999 589.984 351.273C589.984 341.518 591.819 333.219 595.488 326.376C599.157 319.533 604.151 314.32 610.47 310.739C616.788 307.128 623.923 305.322 631.872 305.322C639.764 305.322 646.869 307.128 653.188 310.739C659.536 314.32 664.544 319.533 668.213 326.376C671.911 333.219 673.76 341.518 673.76 351.273ZM654.585 351.273C654.585 344.954 653.639 339.625 651.746 335.286C649.883 330.947 647.247 327.657 643.84 325.415C640.433 323.173 636.444 322.051 631.872 322.051C627.301 322.051 623.311 323.173 619.904 325.415C616.497 327.657 613.847 330.947 611.955 335.286C610.091 339.625 609.159 344.954 609.159 351.273C609.159 357.592 610.091 362.92 611.955 367.259C613.847 371.598 616.497 374.888 619.904 377.131C623.311 379.373 627.301 380.494 631.872 380.494C636.444 380.494 640.433 379.373 643.84 377.131C647.247 374.888 649.883 371.598 651.746 367.259C653.639 362.92 654.585 357.592 654.585 351.273ZM374.265 545V455.545H393.178V529.407H431.528V545H374.265ZM462.966 455.545V545H444.053V455.545H462.966ZM527.054 481.272C526.704 477.749 525.205 475.012 522.555 473.061C519.905 471.11 516.309 470.134 511.766 470.134C508.679 470.134 506.073 470.571 503.947 471.445C501.822 472.289 500.191 473.468 499.055 474.983C497.949 476.497 497.396 478.215 497.396 480.137C497.337 481.738 497.672 483.136 498.4 484.33C499.157 485.524 500.191 486.558 501.501 487.431C502.812 488.276 504.326 489.018 506.044 489.659C507.762 490.27 509.597 490.794 511.548 491.231L519.585 493.153C523.487 494.027 527.068 495.191 530.33 496.647C533.591 498.103 536.416 499.894 538.803 502.02C541.191 504.146 543.04 506.65 544.351 509.533C545.69 512.415 546.374 515.721 546.403 519.448C546.374 524.922 544.977 529.669 542.21 533.687C539.473 537.676 535.513 540.778 530.33 542.991C525.175 545.175 518.958 546.267 511.679 546.267C504.457 546.267 498.167 545.16 492.809 542.947C487.481 540.734 483.316 537.458 480.317 533.119C477.347 528.751 475.789 523.35 475.644 516.914H493.945C494.149 519.914 495.008 522.418 496.522 524.427C498.065 526.407 500.118 527.907 502.681 528.926C505.272 529.916 508.199 530.411 511.46 530.411C514.663 530.411 517.444 529.945 519.803 529.013C522.191 528.082 524.04 526.786 525.35 525.126C526.661 523.466 527.316 521.559 527.316 519.404C527.316 517.395 526.719 515.706 525.525 514.337C524.36 512.969 522.642 511.804 520.371 510.843C518.129 509.882 515.377 509.009 512.115 508.222L502.375 505.776C494.833 503.942 488.878 501.074 484.51 497.172C480.142 493.27 477.973 488.013 478.002 481.403C477.973 475.987 479.414 471.255 482.326 467.208C485.267 463.16 489.3 460.001 494.425 457.729C499.55 455.458 505.374 454.322 511.897 454.322C518.536 454.322 524.331 455.458 529.281 457.729C534.261 460.001 538.134 463.16 540.9 467.208C543.666 471.255 545.093 475.944 545.18 481.272H527.054ZM555.718 471.139V455.545H629.186V471.139H601.799V545H583.105V471.139H555.718ZM411.741 694H380.03V604.545H412.003C421.001 604.545 428.747 606.336 435.24 609.918C441.734 613.471 446.728 618.581 450.222 625.249C453.746 631.918 455.508 639.896 455.508 649.185C455.508 658.504 453.746 666.511 450.222 673.209C446.728 679.906 441.705 685.046 435.153 688.627C428.63 692.209 420.826 694 411.741 694ZM398.943 677.795H410.955C416.546 677.795 421.249 676.805 425.063 674.825C428.907 672.816 431.79 669.714 433.712 665.521C435.663 661.299 436.638 655.854 436.638 649.185C436.638 642.575 435.663 637.174 433.712 632.98C431.79 628.787 428.922 625.701 425.107 623.721C421.292 621.74 416.59 620.75 410.999 620.75H398.943V677.795ZM487.775 655.213V694H469.168V626.909H486.902V638.746H487.688C489.173 634.844 491.663 631.757 495.157 629.486C498.651 627.186 502.888 626.036 507.868 626.036C512.527 626.036 516.589 627.055 520.054 629.093C523.519 631.131 526.213 634.043 528.135 637.829C530.057 641.585 531.018 646.07 531.018 651.282V694H512.41V654.602C512.439 650.496 511.391 647.293 509.265 644.992C507.14 642.663 504.213 641.498 500.486 641.498C497.982 641.498 495.769 642.037 493.847 643.114C491.954 644.191 490.469 645.764 489.391 647.831C488.343 649.87 487.804 652.33 487.775 655.213ZM577.743 694H546.032V604.545H578.005C587.003 604.545 594.749 606.336 601.242 609.918C607.736 613.471 612.73 618.581 616.224 625.249C619.748 631.918 621.509 639.896 621.509 649.185C621.509 658.504 619.748 666.511 616.224 673.209C612.73 679.906 607.707 685.046 601.155 688.627C594.632 692.209 586.828 694 577.743 694ZM564.945 677.795H576.957C582.548 677.795 587.251 676.805 591.065 674.825C594.909 672.816 597.792 669.714 599.714 665.521C601.665 661.299 602.64 655.854 602.64 649.185C602.64 642.575 601.665 637.174 599.714 632.98C597.792 628.787 594.924 625.701 591.109 623.721C587.294 621.74 582.591 620.75 577.001 620.75H564.945V677.795Z" fill="black"/>
<path d="M274.689 741.122L294.493 723.996L300.597 731.055C301.924 732.589 302.761 734.091 303.107 735.56C303.46 737.036 303.386 738.429 302.886 739.741C302.392 741.046 301.537 742.226 300.318 743.28C299.106 744.328 297.819 744.996 296.457 745.284C295.107 745.572 293.736 745.428 292.346 744.85C290.962 744.278 289.606 743.225 288.279 741.691L283.655 736.343L286.227 734.119L290.617 739.196C291.453 740.162 292.272 740.829 293.073 741.195C293.88 741.568 294.671 741.668 295.445 741.494C296.218 741.321 296.976 740.913 297.717 740.272C298.465 739.626 298.988 738.92 299.285 738.156C299.587 737.399 299.619 736.588 299.379 735.725C299.152 734.863 298.612 733.938 297.759 732.952L294.514 729.2L277.273 744.11L274.689 741.122ZM292.078 743.172L287.375 755.791L284.431 752.388L289.218 739.864L292.078 743.172Z" fill="black"/>
<path d="M294.373 762.974L312.409 743.995L324.308 755.303L321.966 757.768L312.93 749.182L307.435 754.964L315.849 762.961L313.516 765.416L305.101 757.42L299.579 763.23L308.726 771.922L306.383 774.387L294.373 762.974Z" fill="black"/>
<path d="M316.324 782.884L313.008 780.318L336.483 765.379L340.093 768.172L331.52 794.644L328.204 792.078L335.463 770.603L335.302 770.478L316.324 782.884ZM323.155 775.206L333.913 783.531L331.878 786.16L321.121 777.835L323.155 775.206Z" fill="black"/>
<path d="M367.586 796.583L364.183 794.503C364.496 793.696 364.644 792.907 364.625 792.137C364.607 791.366 364.457 790.631 364.176 789.93C363.895 789.229 363.495 788.585 362.975 787.997C362.462 787.414 361.85 786.905 361.137 786.469C359.85 785.683 358.499 785.302 357.086 785.327C355.679 785.356 354.299 785.817 352.946 786.707C351.6 787.603 350.375 788.952 349.273 790.756C348.162 792.574 347.515 794.286 347.333 795.892C347.157 797.503 347.383 798.94 348.01 800.202C348.637 801.464 349.587 802.484 350.86 803.262C351.565 803.693 352.292 804.007 353.04 804.205C353.8 804.399 354.554 804.465 355.301 804.403C356.049 804.34 356.767 804.145 357.457 803.817C358.158 803.487 358.796 803.007 359.37 802.379L362.766 804.47C361.913 805.457 360.943 806.252 359.855 806.856C358.779 807.457 357.629 807.843 356.406 808.014C355.194 808.183 353.957 808.131 352.695 807.859C351.433 807.587 350.187 807.075 348.958 806.324C347.024 805.142 345.58 803.631 344.627 801.79C343.679 799.942 343.293 797.893 343.469 795.644C343.653 793.399 344.471 791.087 345.924 788.709C347.382 786.324 349.069 784.543 350.987 783.368C352.908 782.185 354.905 781.597 356.978 781.605C359.055 781.606 361.057 782.195 362.984 783.373C364.169 784.098 365.17 784.944 365.987 785.912C366.815 786.878 367.44 787.939 367.862 789.096C368.288 790.245 368.484 791.453 368.448 792.72C368.418 793.98 368.13 795.268 367.586 796.583Z" fill="black"/>
<path d="M376.429 795.514L377.884 792.44L396.2 801.107L394.745 804.181L387.361 800.687L377.617 821.279L374.058 819.594L383.802 799.002L376.429 795.514Z" fill="black"/>
<path d="M409.013 833.893L416.456 808.791L425.649 811.517C427.43 812.045 428.818 812.776 429.812 813.711C430.808 814.638 431.449 815.686 431.733 816.854C432.02 818.015 431.98 819.217 431.611 820.459C431.301 821.504 430.848 822.33 430.25 822.935C429.655 823.532 428.971 823.952 428.197 824.193C427.434 824.429 426.639 824.531 425.813 824.5L425.74 824.745C426.561 825.033 427.295 825.543 427.939 826.277C428.595 827.005 429.049 827.899 429.303 828.962C429.558 830.024 429.492 831.204 429.107 832.503C428.726 833.786 428.082 834.849 427.175 835.691C426.278 836.527 425.116 837.058 423.689 837.284C422.264 837.502 420.58 837.322 418.635 836.746L409.013 833.893ZM413.764 831.768L419.23 833.389C421.044 833.926 422.448 833.96 423.44 833.49C424.433 833.02 425.086 832.258 425.398 831.204C425.633 830.411 425.649 829.625 425.445 828.844C425.241 828.064 424.825 827.367 424.198 826.754C423.579 826.144 422.762 825.689 421.749 825.388L416.148 823.727L413.764 831.768ZM417.024 820.773L422.098 822.278C422.948 822.53 423.76 822.593 424.535 822.467C425.319 822.344 425.998 822.048 426.572 821.578C427.158 821.103 427.571 820.46 427.81 819.652C428.118 818.614 428.013 817.636 427.494 816.717C426.975 815.799 425.964 815.117 424.46 814.671L419.288 813.138L417.024 820.773Z" fill="black"/>
<path d="M437.374 841.681L442.329 815.973L458.447 819.079L457.804 822.418L445.565 820.059L444.055 827.892L455.453 830.089L454.812 833.416L443.414 831.219L441.896 839.09L454.286 841.478L453.643 844.817L437.374 841.681Z" fill="black"/>
<path d="M466.596 846.612L462.42 846.239L474.134 820.999L478.68 821.405L485.735 848.322L481.558 847.949L476.092 825.949L475.888 825.931L466.596 846.612ZM468.209 836.462L481.757 837.673L481.461 840.983L467.913 839.773L468.209 836.462Z" fill="black"/>
<path d="M512.067 822.098L516.029 822.015L516.39 839.231C516.429 841.063 516.033 842.695 515.202 844.128C514.371 845.552 513.184 846.685 511.641 847.527C510.099 848.361 508.28 848.8 506.183 848.844C504.096 848.887 502.264 848.525 500.688 847.757C499.112 846.98 497.878 845.898 496.988 844.51C496.098 843.113 495.634 841.499 495.595 839.667L495.234 822.451L499.184 822.368L499.538 839.265C499.563 840.449 499.845 841.496 500.384 842.405C500.931 843.315 501.692 844.023 502.666 844.531C503.64 845.031 504.787 845.267 506.108 845.239C507.437 845.211 508.578 844.927 509.53 844.387C510.49 843.839 511.216 843.099 511.708 842.168C512.209 841.237 512.446 840.179 512.422 838.995L512.067 822.098Z" fill="black"/>
<path d="M524.025 824.838L523.592 821.465L543.69 818.888L544.123 822.261L536.02 823.3L538.917 845.896L535.012 846.397L532.115 823.8L524.025 824.838Z" fill="black"/>
<path d="M555.737 816.415L561.051 842.052L557.183 842.854L551.869 817.217L555.737 816.415Z" fill="black"/>
<path d="M572.138 839.564L564.959 814.386L580.572 809.934L581.504 813.204L569.69 816.573L571.877 824.244L582.573 821.194L583.502 824.452L572.806 827.502L575.937 838.481L572.138 839.564Z" fill="black"/>
<path d="M604.298 801.045L607.977 799.572L614.378 815.559C615.059 817.26 615.263 818.927 614.99 820.56C614.713 822.186 614.002 823.664 612.855 824.996C611.705 826.319 610.156 827.371 608.21 828.15C606.272 828.926 604.429 829.232 602.684 829.068C600.935 828.896 599.4 828.317 598.078 827.332C596.753 826.338 595.75 824.991 595.069 823.29L588.668 807.304L592.335 805.835L598.617 821.525C599.057 822.625 599.69 823.505 600.515 824.167C601.347 824.825 602.309 825.22 603.399 825.353C604.487 825.477 605.644 825.294 606.87 824.803C608.104 824.309 609.072 823.641 609.773 822.801C610.478 821.949 610.897 821.001 611.03 819.956C611.17 818.909 611.02 817.835 610.58 816.735L604.298 801.045Z" fill="black"/>
<path d="M628.225 818.894L616.084 795.697L619.584 793.866L630.148 814.05L640.659 808.548L642.236 811.561L628.225 818.894Z" fill="black"/>
<path d="M671.055 792.981L664.227 798.003L648.714 776.912L655.759 771.731C657.825 770.211 659.911 769.328 662.015 769.081C664.114 768.828 666.136 769.197 668.082 770.189C670.03 771.168 671.809 772.753 673.42 774.944C675.036 777.141 676.023 779.324 676.381 781.494C676.746 783.659 676.486 785.722 675.602 787.685C674.713 789.64 673.197 791.406 671.055 792.981ZM665.364 792.882L668.835 790.329C670.441 789.148 671.555 787.863 672.174 786.476C672.789 785.083 672.937 783.615 672.617 782.072C672.292 780.523 671.516 778.915 670.289 777.246C669.072 775.592 667.775 774.382 666.398 773.617C665.028 772.848 663.605 772.545 662.129 772.711C660.653 772.876 659.146 773.524 657.608 774.655L653.942 777.352L665.364 792.882Z" fill="black"/>
<path d="M687.032 745.311L704.768 764.571L702.097 767.031L679.3 761.92L679.121 762.085L692.128 776.21L689.222 778.886L671.487 759.626L674.177 757.15L697 762.27L697.179 762.105L684.154 747.961L687.032 745.311Z" fill="black"/>
<path d="M718.229 750.032L712.663 756.424L692.919 739.229L698.662 732.635C700.347 730.7 702.189 729.383 704.189 728.683C706.182 727.978 708.236 727.897 710.352 728.439C712.466 728.97 714.549 730.128 716.599 731.914C718.656 733.705 720.095 735.62 720.919 737.66C721.748 739.693 721.945 741.763 721.51 743.871C721.069 745.973 719.976 748.027 718.229 750.032ZM712.654 751.178L715.484 747.929C716.794 746.425 717.6 744.929 717.902 743.44C718.197 741.946 718.021 740.481 717.372 739.046C716.717 737.605 715.608 736.205 714.046 734.845C712.498 733.496 710.968 732.598 709.457 732.153C707.952 731.701 706.497 731.717 705.093 732.2C703.688 732.684 702.359 733.645 701.106 735.085L698.117 738.517L712.654 751.178Z" fill="black"/>
</svg>
